<svg width="520" height="320" viewBox="0 0 520 320" fill="none" xmlns="http://www.w3.org/2000/svg">
  <defs>
    <linearGradient id="line" x1="0" y1="0" x2="1" y2="0">
      <stop offset="0%" stop-color="#5CD6C7" />
      <stop offset="60%" stop-color="#75C8FF" />
      <stop offset="100%" stop-color="#FF6F3C" />
    </linearGradient>
    <linearGradient id="glow" x1="0" y1="0" x2="1" y2="1">
      <stop offset="0%" stop-color="#1A2C3D" />
      <stop offset="100%" stop-color="#111A26" />
    </linearGradient>
  </defs>
  <rect x="8" y="8" width="504" height="304" rx="26" fill="url(#glow)" stroke="#1F2A3A" stroke-width="2" />
  <path d="M36 210C78 130 122 248 168 170C214 92 250 238 292 164C334 92 378 220 420 150C462 82 492 168 504 132" stroke="url(#line)" stroke-width="3" stroke-linecap="round" stroke-linejoin="round" />
  <path d="M36 150C78 112 122 176 168 140C214 104 250 176 292 138C334 100 378 168 420 130C462 92 492 132 504 110" stroke="#2A3E52" stroke-width="2" stroke-linecap="round" stroke-linejoin="round" />
  <circle cx="122" cy="248" r="5" fill="#5CD6C7" />
  <circle cx="292" cy="164" r="5" fill="#75C8FF" />
  <circle cx="420" cy="150" r="5" fill="#FF6F3C" />
  <circle cx="78" cy="130" r="4" fill="#FFD166" />
  <circle cx="378" cy="220" r="4" fill="#FFD166" />
</svg>
